<svg width="1515" height="683" viewBox="0 0 1515 683" fill="none" xmlns="http://www.w3.org/2000/svg">
<rect width="1515" height="683" fill="#F2F2F2"/>
<rect x="64" y="64" width="370" height="336" fill="#DED4E7"/>
<path d="M140.64 243.068L140.892 239.26H138.484L138.316 243.068H140.64ZM145.736 259L145.904 257.264H140.752V245.28H133.528L133.36 246.876L138.484 247.1V257.264H133.332V259H145.736ZM158.974 245.168C151.974 244.636 149.622 246.876 149.622 249.06C149.622 252.504 157.294 252.896 157.294 255.332C157.294 256.564 155.586 257.572 149.594 257.096L149.51 259.112C157.21 259.532 159.646 257.376 159.646 255.136C159.646 251.636 151.918 251.02 151.918 248.752C151.918 247.632 153.43 246.68 159.058 247.184L158.974 245.168ZM167.201 259V253.4C172.577 253.008 176.161 251.104 176.161 246.96C176.161 242.704 172.381 240.548 164.877 241.668V259H167.201ZM173.865 247.408C173.865 250.544 171.485 251.636 167.201 251.328V243.488C171.709 242.9 173.865 244.44 173.865 247.408ZM190.743 259L190.939 257.264H186.459V239.456H180.131L179.935 241.08L184.163 241.276V257.264H179.711V259H190.743ZM199.866 257.544C198.158 257.544 197.038 256.704 197.038 255.248C197.038 253.372 198.69 252.28 203.702 252.812C203.702 254.156 203.73 255.164 203.758 256.06C202.694 256.9 201.238 257.544 199.866 257.544ZM204.066 259.084L206.138 258.944C206.026 256.984 205.914 255.052 205.914 252.196C205.914 246.904 203.786 245.252 195.862 245.028L195.61 246.988C201.742 247.212 203.478 248.024 203.674 251.188C197.598 250.824 194.798 252.952 194.798 255.78C194.798 257.992 196.506 259.336 198.998 259.336C201.154 259.336 202.75 258.356 203.87 257.32C203.926 257.936 204.038 258.804 204.066 259.084ZM210.276 263.984C214.924 263.424 216.24 262.136 218.088 257.292C219.88 252.756 221.336 248.668 222.484 245.28H220.3C219.572 247.212 217.612 253.4 216.576 256.2H216.296C214.756 252.7 213.188 248.724 211.816 245.224L209.492 245.364C210.864 248.724 213.496 255.08 215.092 258.58L215.344 258.636C214.392 260.876 213.58 261.352 210.08 261.884L210.276 263.984ZM233.007 243.068L233.259 239.26H230.851L230.683 243.068H233.007ZM238.103 259L238.271 257.264H233.119V245.28H225.895L225.727 246.876L230.851 247.1V257.264H225.699V259H238.103ZM247.253 246.904C248.989 246.904 250.025 247.828 250.025 250.46V259H252.293V249.704C252.293 246.344 250.669 244.972 248.205 244.972C246.245 244.972 244.761 245.84 243.613 246.792L243.473 245.224L241.373 245.364C241.513 248.528 241.569 253.008 241.569 259H243.837C243.837 254.212 243.781 250.6 243.725 248.108C244.789 247.38 245.937 246.904 247.253 246.904ZM258.028 263.844C265.588 263.452 267.464 260.54 267.464 255.808C267.464 254.212 267.464 246.708 267.436 245.616C266.064 245.196 264.776 244.972 263.432 244.972C259.512 244.972 256.124 247.716 256.124 252.14C256.124 255.752 258.336 257.936 261.304 257.936C262.928 257.936 264.244 257.348 265.224 256.592C265.168 260.484 264.3 261.268 257.804 261.772L258.028 263.844ZM262.144 256.116C259.988 256.116 258.364 254.632 258.364 251.608C258.364 248.556 260.212 246.904 262.62 246.904C263.488 246.904 264.328 247.072 265.224 247.324C265.196 249.452 265.224 253.288 265.224 255.164C264.328 255.724 263.236 256.116 262.144 256.116ZM279.359 249.788L279.415 246.512H276.083L276.055 249.788H279.359ZM279.135 259L279.247 255.752H275.915L275.803 259H279.135ZM313.9 257.292H308.972V247.352H314.18V245.616H308.972V245.28C308.972 242.368 309.672 241.64 315.076 241.388L314.908 239.176C308.608 239.512 306.704 242.004 306.704 245.616H302.98L302.784 247.352H306.704V257.292H302.952V259H313.704L313.9 257.292ZM323.022 257.544C321.314 257.544 320.194 256.704 320.194 255.248C320.194 253.372 321.846 252.28 326.858 252.812C326.858 254.156 326.886 255.164 326.914 256.06C325.85 256.9 324.394 257.544 323.022 257.544ZM327.222 259.084L329.294 258.944C329.182 256.984 329.07 255.052 329.07 252.196C329.07 246.904 326.942 245.252 319.018 245.028L318.766 246.988C324.898 247.212 326.634 248.024 326.83 251.188C320.754 250.824 317.954 252.952 317.954 255.78C317.954 257.992 319.662 259.336 322.154 259.336C324.31 259.336 325.906 258.356 327.026 257.32C327.082 257.936 327.194 258.804 327.222 259.084ZM344.689 259L344.885 257.264H340.405V239.456H334.077L333.881 241.08L338.109 241.276V257.264H333.657V259H344.689ZM359.103 245.168C352.103 244.636 349.751 246.876 349.751 249.06C349.751 252.504 357.423 252.896 357.423 255.332C357.423 256.564 355.715 257.572 349.723 257.096L349.639 259.112C357.339 259.532 359.775 257.376 359.775 255.136C359.775 251.636 352.047 251.02 352.047 248.752C352.047 247.632 353.559 246.68 359.187 247.184L359.103 245.168ZM375.03 259.308L375.254 257.376C368.618 257.208 366.574 255.976 366.35 252.728L375.73 252.504C376.234 247.968 374.33 244.944 370.578 244.944C367.022 244.944 364.11 248.164 364.11 252.336C364.11 256.788 366.434 259.28 375.03 259.308ZM370.186 246.82C372.482 246.82 373.574 248.472 373.602 251.104C371.67 251.16 367.918 251.272 366.35 251.328C366.518 248.388 367.918 246.82 370.186 246.82Z" fill="black"/>
<rect width="370" height="110" transform="matrix(1 0 0 -1 64 509)" fill="#FEE29A"/>
<rect width="370" height="110" transform="matrix(1 0 0 -1 64 619)" fill="#ABF5C8"/>
<path d="M141.363 166.76H147.083V163.2H131.043V166.76H136.763V184.44H131.043V188H146.963L147.283 184.44H141.363V166.76ZM161.475 171.36C163.515 171.36 164.835 172.48 164.835 176V188H169.275V174.44C169.275 169.6 167.035 167.56 163.555 167.56C160.795 167.56 158.755 168.84 157.155 170.28L156.915 168L152.795 168.24C153.035 172.76 153.115 179.04 153.115 188H157.595C157.595 181.6 157.515 176.4 157.435 172.68C158.675 171.88 159.955 171.36 161.475 171.36ZM189.747 167.88C179.307 167.16 175.627 170.44 175.627 173.88C175.627 178.88 186.267 179.6 186.267 182.44C186.267 184 183.827 184.92 175.907 184.4L175.747 188.2C187.227 188.72 190.907 185.64 190.907 182.2C190.907 177.2 180.227 176.04 180.227 173.36C180.227 171.96 182.507 171.08 189.907 171.72L189.747 167.88ZM212.54 188.32L213.02 184.64C206.94 184.52 205.06 183.8 205.06 180.68V171.48H212.58V168.08H205.06V162.32L200.66 162.72V168.08H196.98L196.58 171.48H200.66V181.36C200.66 186.48 203.58 188.48 212.54 188.32ZM226.132 185.08C224.092 185.08 222.772 184.04 222.772 182.28C222.772 180.08 224.412 178.76 230.572 179.4C230.612 181.04 230.612 182.36 230.692 183.52C229.292 184.48 227.652 185.08 226.132 185.08ZM231.252 188.12L235.332 187.92C235.132 185.16 234.972 182 234.972 178.12C234.972 170.36 231.972 167.88 219.972 167.68L219.532 171.44C228.092 171.72 230.292 172.64 230.532 176.48C222.132 176.12 218.372 179.32 218.372 183.32C218.372 186.56 220.812 188.52 224.372 188.52C227.252 188.52 229.372 187.2 230.892 185.72C231.012 186.68 231.212 187.96 231.252 188.12ZM249.444 171.36C251.484 171.36 252.804 172.48 252.804 176V188H257.244V174.44C257.244 169.6 255.004 167.56 251.524 167.56C248.764 167.56 246.724 168.84 245.124 170.28L244.884 168L240.764 168.24C241.004 172.76 241.084 179.04 241.084 188H245.564C245.564 181.6 245.484 176.4 245.404 172.68C246.644 171.88 247.924 171.36 249.444 171.36ZM262.876 178.36C262.876 184.52 266.156 189.2 278.596 188.16L279.036 184.48C270.076 185 267.276 182.92 267.276 177.8C267.276 173.96 268.796 171.68 278.756 172L278.476 167.8C266.556 167.84 262.876 172.8 262.876 178.36ZM300.548 188.48L300.988 184.76C292.188 184.56 289.188 183.24 288.708 179.24L301.548 178.88C302.268 171.96 299.588 167.56 293.988 167.56C288.748 167.56 284.268 172.28 284.268 178.4C284.268 184.88 287.668 188.6 300.548 188.48ZM293.188 171.2C295.948 171.2 297.188 173.16 297.308 176.32C294.828 176.4 290.788 176.52 288.668 176.6C288.868 172.88 290.468 171.2 293.188 171.2ZM338.813 177.84H334.613L335.093 173.28H339.293L338.813 177.84ZM337.813 188H340.853L341.493 181.56H345.253L345.653 177.84H341.853L342.333 173.28H346.053L346.453 169.56H342.693L343.333 163.2H340.293L339.653 169.56H335.453L336.093 163.2H333.053L332.413 169.56H328.733L328.333 173.28H332.053L331.573 177.84H327.933L327.493 181.56H331.213L330.573 188H333.613L334.253 181.56H338.453L337.813 188ZM367.805 188L368.165 184.28H362.165V162.4L357.885 162.76V165.68L351.725 166.32L351.805 169.56L357.885 169.4V184.28H351.165V188H367.805Z" fill="black"/>
<path d="M215.924 464.012H207.58V458.104H214.664V456.34H207.58V450.628H215.784V448.64H205.256V466H215.7L215.924 464.012ZM230.927 464.292H225.999V454.352H231.207V452.616H225.999V452.28C225.999 449.368 226.699 448.64 232.103 448.388L231.935 446.176C225.635 446.512 223.731 449.004 223.731 452.616H220.007L219.811 454.352H223.731V464.292H219.979V466H230.731L230.927 464.292ZM246.321 464.292H241.393V454.352H246.601V452.616H241.393V452.28C241.393 449.368 242.093 448.64 247.497 448.388L247.329 446.176C241.029 446.512 239.125 449.004 239.125 452.616H235.401L235.205 454.352H239.125V464.292H235.373V466H246.125L246.321 464.292ZM261.268 466.308L261.492 464.376C254.856 464.208 252.812 462.976 252.588 459.728L261.968 459.504C262.472 454.968 260.568 451.944 256.816 451.944C253.26 451.944 250.348 455.164 250.348 459.336C250.348 463.788 252.672 466.28 261.268 466.308ZM256.424 453.82C258.72 453.82 259.812 455.472 259.84 458.104C257.908 458.16 254.156 458.272 252.588 458.328C252.756 455.388 254.156 453.82 256.424 453.82ZM266.135 459.364C266.135 463.564 268.459 466.672 276.775 466.112L277.027 464.208C270.307 464.516 268.375 462.668 268.375 459.056C268.375 456.144 269.747 454.212 276.831 454.24L276.663 452.084C268.683 452.252 266.135 455.584 266.135 459.364ZM292.169 466.224L292.421 464.32C287.829 464.236 286.513 463.62 286.513 461.24V454.044H292.113V452.28H286.513V448.276L284.245 448.472V452.28H281.641L281.417 454.044H284.245V461.604C284.245 464.992 286.233 466.308 292.169 466.224Z" fill="black"/>
<path d="M207.531 572.096C200.279 572.404 198.375 569.968 198.375 565.292C198.375 561.316 199.775 558.74 207.363 558.656L207.223 556.416C198.711 556.696 195.967 560.84 195.967 565.6C195.967 570.808 198.459 574.7 207.335 574.084L207.531 572.096ZM222.73 574L222.926 572.264H218.446V554.456H212.118L211.922 556.08L216.15 556.276V572.264H211.698V574H222.73ZM237.676 574.308L237.9 572.376C231.264 572.208 229.22 570.976 228.996 567.728L238.376 567.504C238.88 562.968 236.976 559.944 233.224 559.944C229.668 559.944 226.756 563.164 226.756 567.336C226.756 571.788 229.08 574.28 237.676 574.308ZM232.832 561.82C235.128 561.82 236.22 563.472 236.248 566.104C234.316 566.16 230.564 566.272 228.996 566.328C229.164 563.388 230.564 561.82 232.832 561.82ZM247.247 572.544C245.539 572.544 244.419 571.704 244.419 570.248C244.419 568.372 246.071 567.28 251.083 567.812C251.083 569.156 251.111 570.164 251.139 571.06C250.075 571.9 248.619 572.544 247.247 572.544ZM251.447 574.084L253.519 573.944C253.407 571.984 253.295 570.052 253.295 567.196C253.295 561.904 251.167 560.252 243.243 560.028L242.991 561.988C249.123 562.212 250.859 563.024 251.055 566.188C244.979 565.824 242.179 567.952 242.179 570.78C242.179 572.992 243.887 574.336 246.379 574.336C248.535 574.336 250.131 573.356 251.251 572.32C251.307 572.936 251.419 573.804 251.447 574.084ZM263.845 561.904C265.581 561.904 266.617 562.828 266.617 565.46V574H268.885V564.704C268.885 561.344 267.261 559.972 264.797 559.972C262.837 559.972 261.353 560.84 260.205 561.792L260.065 560.224L257.965 560.364C258.105 563.528 258.161 568.008 258.161 574H260.429C260.429 569.212 260.373 565.6 260.317 563.108C261.381 562.38 262.529 561.904 263.845 561.904ZM282.124 574.056L284.224 573.916C284.084 570.752 284.028 566.272 284.028 560.28H281.76C281.76 565.096 281.816 568.68 281.872 571.144C280.836 571.9 279.688 572.404 278.372 572.404C276.664 572.404 275.656 571.508 275.656 568.82V560.196L273.388 560.364V569.576C273.388 572.964 274.984 574.336 277.42 574.336C279.38 574.336 280.836 573.44 281.984 572.488L282.124 574.056ZM293.626 572.376C292.87 572.376 292.142 572.236 291.33 571.956C291.302 567.924 291.246 565.264 291.19 562.996C292.114 562.296 293.234 561.848 294.326 561.848C296.482 561.848 298.078 563.668 298.078 567.084C298.078 570.528 296.118 572.376 293.626 572.376ZM291.33 578.62V574.224C291.834 574.308 292.338 574.336 292.814 574.336C296.874 574.336 300.318 571.452 300.318 566.524C300.318 562.52 298.134 559.972 295.222 559.972C293.514 559.972 292.142 560.728 291.106 561.652L290.966 560.224L288.894 560.364C289.034 563.276 289.062 567.42 289.062 574.056V578.816L291.33 578.62Z" fill="black"/>
<rect x="606" y="64" width="370" height="336" fill="#DED4E7"/>
<path d="M676.64 243.068L676.892 239.26H674.484L674.316 243.068H676.64ZM681.736 259L681.904 257.264H676.752V245.28H669.528L669.36 246.876L674.484 247.1V257.264H669.332V259H681.736ZM694.974 245.168C687.974 244.636 685.622 246.876 685.622 249.06C685.622 252.504 693.294 252.896 693.294 255.332C693.294 256.564 691.586 257.572 685.594 257.096L685.51 259.112C693.21 259.532 695.646 257.376 695.646 255.136C695.646 251.636 687.918 251.02 687.918 248.752C687.918 247.632 689.43 246.68 695.058 247.184L694.974 245.168ZM703.201 259V253.4C708.577 253.008 712.161 251.104 712.161 246.96C712.161 242.704 708.381 240.548 700.877 241.668V259H703.201ZM709.865 247.408C709.865 250.544 707.485 251.636 703.201 251.328V243.488C707.709 242.9 709.865 244.44 709.865 247.408ZM726.743 259L726.939 257.264H722.459V239.456H716.131L715.935 241.08L720.163 241.276V257.264H715.711V259H726.743ZM735.866 257.544C734.158 257.544 733.038 256.704 733.038 255.248C733.038 253.372 734.69 252.28 739.702 252.812C739.702 254.156 739.73 255.164 739.758 256.06C738.694 256.9 737.238 257.544 735.866 257.544ZM740.066 259.084L742.138 258.944C742.026 256.984 741.914 255.052 741.914 252.196C741.914 246.904 739.786 245.252 731.862 245.028L731.61 246.988C737.742 247.212 739.478 248.024 739.674 251.188C733.598 250.824 730.798 252.952 730.798 255.78C730.798 257.992 732.506 259.336 734.998 259.336C737.154 259.336 738.75 258.356 739.87 257.32C739.926 257.936 740.038 258.804 740.066 259.084ZM746.276 263.984C750.924 263.424 752.24 262.136 754.088 257.292C755.88 252.756 757.336 248.668 758.484 245.28H756.3C755.572 247.212 753.612 253.4 752.576 256.2H752.296C750.756 252.7 749.188 248.724 747.816 245.224L745.492 245.364C746.864 248.724 749.496 255.08 751.092 258.58L751.344 258.636C750.392 260.876 749.58 261.352 746.08 261.884L746.276 263.984ZM769.007 243.068L769.259 239.26H766.851L766.683 243.068H769.007ZM774.103 259L774.271 257.264H769.119V245.28H761.895L761.727 246.876L766.851 247.1V257.264H761.699V259H774.103ZM783.253 246.904C784.989 246.904 786.025 247.828 786.025 250.46V259H788.293V249.704C788.293 246.344 786.669 244.972 784.205 244.972C782.245 244.972 780.761 245.84 779.613 246.792L779.473 245.224L777.373 245.364C777.513 248.528 777.569 253.008 777.569 259H779.837C779.837 254.212 779.781 250.6 779.725 248.108C780.789 247.38 781.937 246.904 783.253 246.904ZM794.028 263.844C801.588 263.452 803.464 260.54 803.464 255.808C803.464 254.212 803.464 246.708 803.436 245.616C802.064 245.196 800.776 244.972 799.432 244.972C795.512 244.972 792.124 247.716 792.124 252.14C792.124 255.752 794.336 257.936 797.304 257.936C798.928 257.936 800.244 257.348 801.224 256.592C801.168 260.484 800.3 261.268 793.804 261.772L794.028 263.844ZM798.144 256.116C795.988 256.116 794.364 254.632 794.364 251.608C794.364 248.556 796.212 246.904 798.62 246.904C799.488 246.904 800.328 247.072 801.224 247.324C801.196 249.452 801.224 253.288 801.224 255.164C800.328 255.724 799.236 256.116 798.144 256.116ZM815.359 249.788L815.415 246.512H812.083L812.055 249.788H815.359ZM815.135 259L815.247 255.752H811.915L811.803 259H815.135ZM849.9 257.292H844.972V247.352H850.18V245.616H844.972V245.28C844.972 242.368 845.672 241.64 851.076 241.388L850.908 239.176C844.608 239.512 842.704 242.004 842.704 245.616H838.98L838.784 247.352H842.704V257.292H838.952V259H849.704L849.9 257.292ZM859.022 257.544C857.314 257.544 856.194 256.704 856.194 255.248C856.194 253.372 857.846 252.28 862.858 252.812C862.858 254.156 862.886 255.164 862.914 256.06C861.85 256.9 860.394 257.544 859.022 257.544ZM863.222 259.084L865.294 258.944C865.182 256.984 865.07 255.052 865.07 252.196C865.07 246.904 862.942 245.252 855.018 245.028L854.766 246.988C860.898 247.212 862.634 248.024 862.83 251.188C856.754 250.824 853.954 252.952 853.954 255.78C853.954 257.992 855.662 259.336 858.154 259.336C860.31 259.336 861.906 258.356 863.026 257.32C863.082 257.936 863.194 258.804 863.222 259.084ZM880.689 259L880.885 257.264H876.405V239.456H870.077L869.881 241.08L874.109 241.276V257.264H869.657V259H880.689ZM895.103 245.168C888.103 244.636 885.751 246.876 885.751 249.06C885.751 252.504 893.423 252.896 893.423 255.332C893.423 256.564 891.715 257.572 885.723 257.096L885.639 259.112C893.339 259.532 895.775 257.376 895.775 255.136C895.775 251.636 888.047 251.02 888.047 248.752C888.047 247.632 889.559 246.68 895.187 247.184L895.103 245.168ZM911.03 259.308L911.254 257.376C904.618 257.208 902.574 255.976 902.35 252.728L911.73 252.504C912.234 247.968 910.33 244.944 906.578 244.944C903.022 244.944 900.11 248.164 900.11 252.336C900.11 256.788 902.434 259.28 911.03 259.308ZM906.186 246.82C908.482 246.82 909.574 248.472 909.602 251.104C907.67 251.16 903.918 251.272 902.35 251.328C902.518 248.388 903.918 246.82 906.186 246.82Z" fill="black"/>
<rect width="370" height="110" transform="matrix(1 0 0 -1 606 509)" fill="#FEE29A"/>
<path d="M683.363 166.76H689.083V163.2H673.043V166.76H678.763V184.44H673.043V188H688.963L689.283 184.44H683.363V166.76ZM703.475 171.36C705.515 171.36 706.835 172.48 706.835 176V188H711.275V174.44C711.275 169.6 709.035 167.56 705.555 167.56C702.795 167.56 700.755 168.84 699.155 170.28L698.915 168L694.795 168.24C695.035 172.76 695.115 179.04 695.115 188H699.595C699.595 181.6 699.515 176.4 699.435 172.68C700.675 171.88 701.955 171.36 703.475 171.36ZM731.747 167.88C721.307 167.16 717.627 170.44 717.627 173.88C717.627 178.88 728.267 179.6 728.267 182.44C728.267 184 725.827 184.92 717.907 184.4L717.747 188.2C729.227 188.72 732.907 185.64 732.907 182.2C732.907 177.2 722.227 176.04 722.227 173.36C722.227 171.96 724.507 171.08 731.907 171.72L731.747 167.88ZM754.54 188.32L755.02 184.64C748.94 184.52 747.06 183.8 747.06 180.68V171.48H754.58V168.08H747.06V162.32L742.66 162.72V168.08H738.98L738.58 171.48H742.66V181.36C742.66 186.48 745.58 188.48 754.54 188.32ZM768.132 185.08C766.092 185.08 764.772 184.04 764.772 182.28C764.772 180.08 766.412 178.76 772.572 179.4C772.612 181.04 772.612 182.36 772.692 183.52C771.292 184.48 769.652 185.08 768.132 185.08ZM773.252 188.12L777.332 187.92C777.132 185.16 776.972 182 776.972 178.12C776.972 170.36 773.972 167.88 761.972 167.68L761.532 171.44C770.092 171.72 772.292 172.64 772.532 176.48C764.132 176.12 760.372 179.32 760.372 183.32C760.372 186.56 762.812 188.52 766.372 188.52C769.252 188.52 771.372 187.2 772.892 185.72C773.012 186.68 773.212 187.96 773.252 188.12ZM791.444 171.36C793.484 171.36 794.804 172.48 794.804 176V188H799.244V174.44C799.244 169.6 797.004 167.56 793.524 167.56C790.764 167.56 788.724 168.84 787.124 170.28L786.884 168L782.764 168.24C783.004 172.76 783.084 179.04 783.084 188H787.564C787.564 181.6 787.484 176.4 787.404 172.68C788.644 171.88 789.924 171.36 791.444 171.36ZM804.876 178.36C804.876 184.52 808.156 189.2 820.596 188.16L821.036 184.48C812.076 185 809.276 182.92 809.276 177.8C809.276 173.96 810.796 171.68 820.756 172L820.476 167.8C808.556 167.84 804.876 172.8 804.876 178.36ZM842.548 188.48L842.988 184.76C834.188 184.56 831.188 183.24 830.708 179.24L843.548 178.88C844.268 171.96 841.588 167.56 835.988 167.56C830.748 167.56 826.268 172.28 826.268 178.4C826.268 184.88 829.668 188.6 842.548 188.48ZM835.188 171.2C837.948 171.2 839.188 173.16 839.308 176.32C836.828 176.4 832.788 176.52 830.668 176.6C830.868 172.88 832.468 171.2 835.188 171.2ZM880.813 177.84H876.613L877.093 173.28H881.293L880.813 177.84ZM879.813 188H882.853L883.493 181.56H887.253L887.653 177.84H883.853L884.333 173.28H888.053L888.453 169.56H884.693L885.333 163.2H882.293L881.653 169.56H877.453L878.093 163.2H875.053L874.413 169.56H870.733L870.333 173.28H874.053L873.573 177.84H869.933L869.493 181.56H873.213L872.573 188H875.613L876.253 181.56H880.453L879.813 188ZM909.285 188V184.16H898.045C904.725 178.92 908.645 175.28 908.645 170.24C908.645 166.12 905.285 162.76 893.845 162.88L893.485 167C901.845 167.12 904.245 168.6 904.245 171.4C904.245 175.08 900.205 178.68 892.725 184.48L893.165 188H909.285Z" fill="black"/>
<path d="M757.924 464.012H749.58V458.104H756.664V456.34H749.58V450.628H757.784V448.64H747.256V466H757.7L757.924 464.012ZM772.927 464.292H767.999V454.352H773.207V452.616H767.999V452.28C767.999 449.368 768.699 448.64 774.103 448.388L773.935 446.176C767.635 446.512 765.731 449.004 765.731 452.616H762.007L761.811 454.352H765.731V464.292H761.979V466H772.731L772.927 464.292ZM788.321 464.292H783.393V454.352H788.601V452.616H783.393V452.28C783.393 449.368 784.093 448.64 789.497 448.388L789.329 446.176C783.029 446.512 781.125 449.004 781.125 452.616H777.401L777.205 454.352H781.125V464.292H777.373V466H788.125L788.321 464.292ZM803.268 466.308L803.492 464.376C796.856 464.208 794.812 462.976 794.588 459.728L803.968 459.504C804.472 454.968 802.568 451.944 798.816 451.944C795.26 451.944 792.348 455.164 792.348 459.336C792.348 463.788 794.672 466.28 803.268 466.308ZM798.424 453.82C800.72 453.82 801.812 455.472 801.84 458.104C799.908 458.16 796.156 458.272 794.588 458.328C794.756 455.388 796.156 453.82 798.424 453.82ZM808.135 459.364C808.135 463.564 810.459 466.672 818.775 466.112L819.027 464.208C812.307 464.516 810.375 462.668 810.375 459.056C810.375 456.144 811.747 454.212 818.831 454.24L818.663 452.084C810.683 452.252 808.135 455.584 808.135 459.364ZM834.169 466.224L834.421 464.32C829.829 464.236 828.513 463.62 828.513 461.24V454.044H834.113V452.28H828.513V448.276L826.245 448.472V452.28H823.641L823.417 454.044H826.245V461.604C826.245 464.992 828.233 466.308 834.169 466.224Z" fill="black"/>
<path d="M434 454H508.243C521.395 454 532.057 464.662 532.057 477.814V542.186C532.057 555.338 542.719 566 555.871 566H1436" stroke="#C4002F" stroke-width="4.46512"/>
<path d="M976 454H1436.5" stroke="#C4002F" stroke-width="4.46512"/>
</svg>
